<?xml version="1.0" encoding="utf-8"?>
<!-- Generator: Adobe Illustrator 24.3.0, SVG Export Plug-In . SVG Version: 6.00 Build 0)  -->
<svg version="1.1" id="Layer_1" xmlns="http://www.w3.org/2000/svg" xmlns:xlink="http://www.w3.org/1999/xlink" x="0px" y="0px"
	 viewBox="0 0 512 512" style="enable-background:new 0 0 512 512;" xml:space="preserve">
<style type="text/css">
	.st0{fill:#FBB900;}
	.st1{fill:#0058A1;}
</style>
<g id="XMLID_1_">
	<path id="XMLID_2_" class="st0" d="M281.67,90.14c0,0,25.39-50.36,61.44-16.27c37.87,34.09,157.39,153.6,157.39,153.6
		s3.79,3.65,7.57,3.65c0,0-20.9,3.79-34.09-7.43c-13.33-11.36-121.34-121.34-121.34-121.34s-2.24-0.56-3.79,1.96
		c-0.84,1.54,0,3.65,0,3.65S464.59,225.64,470.2,227.46c5.75,1.68,5.75,3.65,9.4,3.65c3.79,1.96-20.76,3.79-36.05-9.4
		c-15.01-13.33-98.47-98.61-98.47-98.61s-2.1-0.98-3.93,0.84c-1.96,1.96,0.14,4.91,0.14,4.91l96.79,94.83c0,0,9.4,5.47,11.22,5.47
		c0,0-20.76,1.96-36.05-11.22c-13.19-13.33-77.71-77.71-77.71-77.71s-2.24-1.96-3.79,0c-1.4,1.54,0.14,4.21,0.14,4.21l71.82,69.72
		c0,0,13.33,11.36,15.29,11.36c-1.96,0-26.51,0-41.66-17.11c-15.29-15.29-54.85-53.16-54.85-53.16s-2.38-2.1-3.79,0s0,3.79,0,3.79
		l54.85,53.16c0,0,3.79,1.96,7.57,3.79c0,0-39.7-0.98-83.32-56.11c0,0,1.4-21.46-3.93-38.72
		C289.67,107.81,281.67,90.14,281.67,90.14z"/>
	<path id="XMLID_3_" class="st0" d="M161.32,214c0,0-19.36,9.68-6.03,24.69c3.51,0,30.44,0,30.44,0s0.7-6.03,8.7-11.92
		c6.59-4.91-0.98-14.59-0.98-14.59s13.19,0,15.01,3.79c0,0-1.96-5.75,1.96-9.54c3.79-3.79,5.75-11.36,5.75-11.36
		s1.96,5.75,3.79,7.57c1.96,1.96,7.57,7.57,7.57,7.57s0.14-7.72,1.96-9.54c1.68-1.68,5.75-5.75,5.75-11.36c0-3.65,0-9.4,0-9.4
		s16.97,11.22,16.97,18.8c0,0,1.96-3.79,5.75-7.57c5.75-1.96,9.54-3.65,9.54-3.65s-3.79,7.43,11.36,24.55c0,0,4.63-4.63,4.63-10.38
		c0-1.96,7.15,0.7,10.38,4.63c3.79,4.49,3.79,13.33,3.79,13.33s4.35-5.89,7.57-7.57c3.37-1.68,9.54,0,9.54,0s-3.79,9.54,1.96,16.97
		c5.75,5.75,9.4,9.54,9.4,9.54h32.26c0,0,7.43-5.75,3.65-11.22c-3.65-5.75-7.57-12.91-7.57-12.91s0.14,1.26-0.84,6.45
		c-0.7,3.23-4.63,4.63-4.63,4.63s-2.24-7.29-5.75-9.54c-8.28-5.47-5.75-13.33-5.75-13.33s-4.21,0.56-6.45,5.75
		c-2.24,5.33-1.26,7.57-1.26,7.57s-6.45-5.75-7.43-11.36c-1.4-6.59,2.24-10.24,2.24-10.24s-8-3.09-9.82-1.26
		c-3.79,1.96-7.57,5.75-7.57,5.75s3.79-18.8-1.96-22.72c-3.79-3.79-3.79-3.79-3.79-3.79s1.54,4.49-5.75,7.57
		c-6.03,2.52-7.43,12.76-13.19,15.01c0,1.96-5.19-11.22-5.75-15.01c-1.26-7.15,1.4-8.7,1.4-16.27c0,0-8.98,4.35-14.17,4.91
		c-3.09,0.28-8.14,7.57-8.14,7.57s4.21-9.12-1.96-17.11c-2.52-3.51-3.79-7.57-3.79-7.57s-3.79,7.57-7.43,11.36
		c-3.79,3.79-13.33,9.54-15.29,15.29c-3.79,5.75-3.79,11.22-3.79,11.22s-3.79-7.43-5.75-9.4c-1.96-1.96-7.29-3.23-7.29-3.23
		s-0.14,5.89-6.03,12.62c-6.45,7.29-1.68,17.11-1.68,17.11s-11.78,2.67-13.33-1.96c-0.84-2.52,2.1-6.59,2.1-6.59
		s-5.89,0.84-9.68,4.63c-1.96,3.79-3.79,9.54-5.75,13.33c-3.79,5.75-7.57,11.36-9.54,11.36C163.14,225.64,161.32,214,161.32,214z"/>
	<path id="XMLID_4_" class="st0" d="M193.44,238.83h39.84c0,0,0.56-15.71-5.75-18.8c-11.92-6.03-8.98-12.91-8.98-12.91
		s-5.33-0.42-6.17,5.33c-1.54,8.7,0,16.97,0,16.97s0-1.68-3.79-5.47c-3.79-3.79-7.43-3.79-7.43-3.79s1.96,3.79,0,7.57
		c-1.96,3.65-5.75,3.65-7.57,7.43C191.47,238.83,193.44,238.83,193.44,238.83z"/>
	<path id="XMLID_5_" class="st0" d="M237.2,238.83h83.32c0,0-9.54-1.96-9.54-9.54c-1.96-5.47,0-11.22,0-11.22s-7.57,0.84-9.54,5.75
		c-2.95,7.29-7.57,7.43-7.57,7.43s1.96-11.22-1.96-15.01c-1.96-3.79-5.75-7.57-5.75-7.57s0.84,5.33-1.96,7.57
		c-5.19,4.21-5.61,3.79-5.61,3.79s-7.57-3.79-11.36-11.36c-3.79-5.75-3.79-11.36-3.79-11.36s-5.75,0-7.57,5.75
		c-1.96,5.75-3.79,9.54-3.79,9.54s-7.57-20.9-13.19-20.9c0,0,2.1,4.35,0,7.57c-2.95,4.63-9.4,8-5.47,15.57
		C241.41,230.27,237.2,238.83,237.2,238.83z"/>
	<path id="XMLID_6_" class="st0" d="M284.34,36.69h-11.22c0,0,2.67-5.33-1.4-6.03c-2.95-0.56-6.45-0.28-6.45-0.28
		s1.26,3.51,2.95,4.63c4.35,2.95,5.19-0.98,5.19-0.98l10.94,0.14c0,0,22.86-5.75,20.9,20.9c0,0-1.96-3.79-7.57-3.79
		c-3.79-1.96-24.55-3.79-28.48,5.75c-1.96,13.19-1.96,16.97,3.79,28.34c5.75,7.57,36.05,62.42,11.22,102.4c0,0-3.65-5.75-1.68-13.33
		c0-7.57,0-15.29,0-17.11c0,0-19.08,1.96-20.9,7.57c0,0,1.96-15.15-17.11-20.76c0,0,1.96,11.22-9.4,16.97
		c-9.54,5.75-13.33,17.11-13.33,17.11s-7.57-9.54-11.36-9.54c0,0-32.26,39.84-73.92,49.24l11.36-9.54l54.99-51.2
		c0-1.96,1.26-2.95-0.56-4.63c-0.98-0.98-4.21-0.28-4.21-0.28s-59.9,63.82-76.87,69.58c-17.11,5.75-24.83,5.75-24.83,5.75
		s9.54-3.79,15.29-9.54c1.96-3.79,73.92-71.96,73.92-71.96s1.26-2.38,0-4.63c-0.7-1.26-3.79-0.98-3.79-0.98l-75.89,75.75
		c0,0-19.08,18.8-41.66,15.01c0,0,11.36-5.47,13.33-7.43c5.75-3.79,94.68-92.86,94.68-92.86s1.4-2.67-0.14-4.63
		c-0.98-1.4-3.65-0.98-3.65-0.98l-96.65,96.65c0,0-17.11,15.01-37.87,11.22c0,0,5.75-1.96,11.5-5.47
		C49.1,223.96,163,112.02,163,112.02s2.52-2.38,0-5.33c-1.26-1.4-3.79-0.14-3.79-0.14S88.93,174.72,45.45,222.13
		c-17.11,15.01-39.84,11.22-39.84,11.22c3.65-1.96,7.43-1.96,11.22-5.47c3.79-3.79,151.64-153.6,151.64-153.6s20.9-16.97,41.66-5.75
		c17.11,7.57,26.65,24.69,26.65,39.84h3.79c0,0,0-18.8-15.29-34.09c0,0-3.79-7.43,13.33-36.05c0,0-11.36-11.22,3.79-24.55
		c0,0-3.79,9.54,9.4,9.54c13.33,0,28.62-1.96,32.26,11.22v2.24H284.34z"/>
	<polygon id="XMLID_7_" class="st1" points="512,243.31 0,243.31 184.46,428.76 184.46,428.48 254.04,498.61 324.73,428.34 
		324.73,428.76 	"/>
	<path id="XMLID_8_" class="st0" d="M385.75,295.08c-1.4-14.17-10.8-22.44-27.63-22.44c-15.29,0-27.35,11.08-27.35,28.9
		s10.94,29.04,29.18,29.04c14.45,0,24.69-8.56,26.23-22.72h-17.25c-0.7,5.33-3.37,9.26-9.26,9.26c-9.12,0-10.8-7.29-10.8-15.01
		c0-10.66,3.79-15.99,10.1-15.99c5.61,0,9.26,3.23,9.82,8.98H385.75z"/>
	<path id="XMLID_9_" class="st0" d="M257.82,267.3l5.75,9.4l3.79-1.96c0,0,0,0,1.96,0c3.79,0,20.76,0,20.76,0v-11.22h-26.51
		c0,0-1.96-0.42-3.93,1.4C257.54,266.6,257.82,267.3,257.82,267.3z"/>
	<path id="XMLID_10_" class="st0" d="M264.84,358.2c3.51,0,7.01,0,10.24,0c1.82-2.81,5.05-4.77,8.7-4.77s6.87,1.82,8.84,4.77
		c0.42,0,0.84,0,1.12,0c5.75,0-0.14-6.31-0.14-6.31l-13.19-19.5c0,0-1.12,0.14-1.68,0.14c-6.87,0-12.48-5.61-12.48-12.34
		c0-2.24,1.54-6.03,1.54-6.03c-9.82-15.29-25.25-38.15-25.25-39.14h-1.96h-19.08v-11.22c0,0,20.9-0.14,24.55,0
		c2.95,0.14,3.79,1.96,3.79,1.96l27.49,42.22c0,0,0.84,0,1.26,0c6.87,0,12.48,5.61,12.48,12.34c0,2.24-1.68,6.31-1.68,6.31
		l0.14-0.14c0,0,15.85,24.13,17.81,27.91c9.54,11.36-2.95,16.27-7.86,15.57c0,0-2.67,0-7.01,0c-1.82,2.67-5.05,4.49-8.56,4.49
		c-3.51,0-6.73-1.82-8.56-4.49c-3.37,0-6.87,0-10.38,0c-1.82,2.67-5.05,4.49-8.56,4.49c-3.51,0-6.73-1.82-8.56-4.63
		c-3.79,0-7.29,0-10.94,0c-1.82,2.67-5.05,4.49-8.56,4.49c-3.65,0-6.59-1.68-8.56-4.49c-4.91,0-8.7,0-11.08,0.14
		c-6.45,0.14-16.41-6.87-7.43-17.11l18.66-27.63c0,0-1.26-3.51-1.26-5.47c0-6.87,5.61-12.34,12.48-12.34c0.42,0,1.12,0,1.12,0
		l12.48-18.94l7.57,9.54l-10.52,15.71c0,0,1.68,3.93,1.68,6.17c0,6.87-5.61,12.34-12.48,12.34c-0.56,0-1.4-0.14-1.4-0.14
		c-6.03,8.7-12.91,18.94-15.15,21.74c-3.79,5.75,1.96,4.77,1.96,4.77s1.26-0.14,3.23-0.14c1.82-2.81,5.05-4.77,8.7-4.77
		c3.65,0,6.87,1.96,8.7,4.91c3.37,0,7.01,0,10.66,0c1.82-2.81,5.05-4.77,8.7-4.77C259.93,353.29,263.01,355.25,264.84,358.2z"/>
	<path id="XMLID_11_" class="st0" d="M161.46,275.58h-18.24l-19.64,54.71h17.39l2.1-7.01h17.96l2.1,7.01h17.96L161.46,275.58z
		 M146.59,312.05l5.61-19.64l5.75,19.64H146.59z"/>
	<path id="XMLID_14_" class="st0" d="M254.46,446.15c-14.17,0-23.71-8.14-23.71-17.67v-0.28l-0.28-0.98h17.25l0.14,1.4l0,0
		c0.42,1.4,1.4,2.81,2.81,3.65s3.37,1.4,5.05,1.4c4.49,0,7.43-1.4,7.43-4.07c0-0.42,0-0.98-0.14-0.98l0,0
		c-2.52-7.01-31.42-2.52-31.42-22.58c0-11.64,10.1-17.39,23.85-17.39c15.29,0,22.16,7.72,23.43,17.53h-17.11
		c-0.28-2.81-1.26-3.23-2.52-3.93c-1.26-0.7-2.95-1.12-4.63-1.12c-3.93,0-5.89,1.12-5.89,3.09c0,8.28,31.14,3.09,31.14,23.15
		c0,0.42,0,1.4,0,1.4C279.85,440.54,269.05,446.15,254.46,446.15z"/>
</g>
</svg>
