<?xml version="1.0" encoding="UTF-8" standalone="no"?>
<svg
   xmlns:dc="http://purl.org/dc/elements/1.1/"
   xmlns:cc="http://creativecommons.org/ns#"
   xmlns:rdf="http://www.w3.org/1999/02/22-rdf-syntax-ns#"
   xmlns:svg="http://www.w3.org/2000/svg"
   xmlns="http://www.w3.org/2000/svg"
   xmlns:sodipodi="http://sodipodi.sourceforge.net/DTD/sodipodi-0.dtd"
   xmlns:inkscape="http://www.inkscape.org/namespaces/inkscape"
   viewBox="0 0 337.91213 95.753597"
   height="95.753601"
   width="337.91214"
   xml:space="preserve"
   id="svg2"
   version="1.1"
   sodipodi:docname="RSC-brand-guidelines-2019_tcm18-246471.svg"
   inkscape:version="0.92.5 (2060ec1f9f, 2020-04-08)"><sodipodi:namedview
     pagecolor="#ffffff"
     bordercolor="#666666"
     borderopacity="1"
     objecttolerance="10"
     gridtolerance="10"
     guidetolerance="10"
     inkscape:pageopacity="0"
     inkscape:pageshadow="2"
     inkscape:window-width="1204"
     inkscape:window-height="705"
     id="namedview1617"
     showgrid="false"
     fit-margin-top="0"
     fit-margin-left="0"
     fit-margin-right="0"
     fit-margin-bottom="0"
     inkscape:zoom="1.8826717"
     inkscape:cx="113.65209"
     inkscape:cy="-42.094264"
     inkscape:window-x="-8"
     inkscape:window-y="-8"
     inkscape:window-maximized="1"
     inkscape:current-layer="g10" /><metadata
     id="metadata8"><rdf:RDF><cc:Work
         rdf:about=""><dc:format>image/svg+xml</dc:format><dc:type
           rdf:resource="http://purl.org/dc/dcmitype/StillImage" /><dc:title></dc:title></cc:Work></rdf:RDF></metadata><defs
     id="defs6"><clipPath
       id="clipPath18"
       clipPathUnits="userSpaceOnUse"><path
         id="path16"
         d="M 0,0 H 1280 V 800 H 0 Z"
         inkscape:connector-curvature="0" /></clipPath><clipPath
       id="clipPath32"
       clipPathUnits="userSpaceOnUse"><path
         id="path30"
         d="M 0,0 H 1280 V 800 H 0 Z"
         inkscape:connector-curvature="0" /></clipPath><clipPath
       id="clipPath48"
       clipPathUnits="userSpaceOnUse"><path
         id="path46"
         d="M 427.562,532.022 H 659 V -110.103 H 427.562 Z"
         inkscape:connector-curvature="0" /></clipPath><clipPath
       id="clipPath78"
       clipPathUnits="userSpaceOnUse"><path
         id="path76"
         d="M 0,660.869 H 320 V 800 H 0 Z"
         inkscape:connector-curvature="0" /></clipPath><clipPath
       id="clipPath194"
       clipPathUnits="userSpaceOnUse"><path
         id="path192"
         d="M 41.0882,765.217 H 78.75 V 736.98 H 41.0882 Z"
         inkscape:connector-curvature="0" /></clipPath><clipPath
       id="clipPath198"
       clipPathUnits="userSpaceOnUse"><path
         id="path196"
         d="M 41.088,736.98 H 78.75 v 28.237 H 41.088 Z"
         inkscape:connector-curvature="0" /></clipPath><clipPath
       id="clipPath218"
       clipPathUnits="userSpaceOnUse"><path
         id="path216"
         d="M 34.7826,735.341 H 63.0197 V 697.68 H 34.7826 Z"
         inkscape:connector-curvature="0" /></clipPath><clipPath
       id="clipPath222"
       clipPathUnits="userSpaceOnUse"><path
         id="path220"
         d="M 34.783,697.68 H 63.02 v 37.661 H 34.783 Z"
         inkscape:connector-curvature="0" /></clipPath><clipPath
       id="clipPath242"
       clipPathUnits="userSpaceOnUse"><path
         id="path240"
         d="M 0,0 H 1280 V 800 H 0 Z"
         inkscape:connector-curvature="0" /></clipPath><clipPath
       id="clipPath78-1"
       clipPathUnits="userSpaceOnUse"><path
         inkscape:connector-curvature="0"
         id="path76-8"
         d="M 0,660.869 H 320 V 800 H 0 Z" /></clipPath><clipPath
       id="clipPath194-9"
       clipPathUnits="userSpaceOnUse"><path
         inkscape:connector-curvature="0"
         id="path192-4"
         d="M 41.0882,765.217 H 78.75 V 736.98 H 41.0882 Z" /></clipPath><clipPath
       id="clipPath198-4"
       clipPathUnits="userSpaceOnUse"><path
         inkscape:connector-curvature="0"
         id="path196-9"
         d="M 41.088,736.98 H 78.75 v 28.237 H 41.088 Z" /></clipPath><clipPath
       id="clipPath218-0"
       clipPathUnits="userSpaceOnUse"><path
         inkscape:connector-curvature="0"
         id="path216-1"
         d="M 34.7826,735.341 H 63.0197 V 697.68 H 34.7826 Z" /></clipPath><clipPath
       id="clipPath222-1"
       clipPathUnits="userSpaceOnUse"><path
         inkscape:connector-curvature="0"
         id="path220-5"
         d="M 34.783,697.68 H 63.02 v 37.661 H 34.783 Z" /></clipPath></defs><g
     transform="matrix(1.3333333,0,0,-1.3333333,-512.9288,453.05838)"
     id="g10">


<g
   transform="translate(351.41362,-426.54821)"
   clip-path="url(#clipPath78-1)"
   id="g74"><g
     transform="translate(110.1426,739.4767)"
     id="g80"><path
       inkscape:connector-curvature="0"
       id="path82"
       style="fill:#004976;fill-opacity:1;fill-rule:nonzero;stroke:none"
       d="m 0,0 c 2.382,0 4.083,1.225 4.083,3.266 v 0.045 c 0,1.951 -1.497,3.131 -4.06,3.131 H -4.876 V 0 Z M -6.668,8.097 H 0.159 C 2.11,8.097 3.675,7.507 4.672,6.51 5.444,5.739 5.897,4.627 5.897,3.379 V 3.334 c 0,-2.631 -1.814,-4.173 -4.309,-4.626 L 6.464,-7.78 h -2.2 L -0.34,-1.611 H -0.385 -4.876 V -7.78 h -1.792 z" /></g><g
     transform="translate(133.0484,739.5902)"
     id="g84"><path
       inkscape:connector-curvature="0"
       id="path86"
       style="fill:#004976;fill-opacity:1;fill-rule:nonzero;stroke:none"
       d="M 0,0 V 0.046 C 0,3.652 -2.631,6.6 -6.26,6.6 -9.888,6.6 -12.474,3.698 -12.474,0.091 V 0.046 c 0,-3.607 2.631,-6.556 6.259,-6.556 C -2.586,-6.51 0,-3.607 0,0 m -14.334,0 v 0.046 c 0,4.377 3.289,8.21 8.119,8.21 4.832,0 8.074,-3.788 8.074,-8.165 0.023,-0.023 0.023,-0.023 0,-0.045 0,-4.378 -3.288,-8.211 -8.119,-8.211 -4.831,0 -8.074,3.788 -8.074,8.165" /></g><g
     transform="translate(141.8447,737.98)"
     id="g88"><path
       inkscape:connector-curvature="0"
       id="path90"
       style="fill:#004976;fill-opacity:1;fill-rule:nonzero;stroke:none"
       d="m 0,0 -6.6,9.594 h 2.178 L 0.93,1.656 6.328,9.594 H 8.415 L 1.814,0.022 V -6.282 H 0 Z" /></g><g
     transform="translate(160.4618,737.5035)"
     id="g92"><path
       inkscape:connector-curvature="0"
       id="path94"
       style="fill:#004976;fill-opacity:1;fill-rule:nonzero;stroke:none"
       d="M 0,0 -3.607,8.097 -7.236,0 Z m -4.423,10.184 h 1.678 L 4.49,-5.806 H 2.563 l -1.86,4.196 h -8.642 l -1.882,-4.196 h -1.837 z" /></g><g
     transform="translate(167.6264,747.574)"
     id="g96"><path
       inkscape:connector-curvature="0"
       id="path98"
       style="fill:#004976;fill-opacity:1;fill-rule:nonzero;stroke:none"
       d="m 0,0 h 1.791 v -14.221 h 8.937 v -1.655 H 0 Z" /></g><g
     transform="translate(186.5163,734.0109)"
     id="g100"><path
       inkscape:connector-curvature="0"
       id="path102"
       style="fill:#004976;fill-opacity:1;fill-rule:nonzero;stroke:none"
       d="m 0,0 1.112,1.315 c 1.655,-1.497 3.242,-2.245 5.443,-2.245 2.132,0 3.538,1.135 3.538,2.699 v 0.045 c 0,1.475 -0.794,2.314 -4.128,3.017 -3.652,0.794 -5.33,1.973 -5.33,4.581 v 0.046 c 0,2.494 2.2,4.332 5.216,4.332 2.314,0 3.97,-0.658 5.58,-1.951 L 10.388,10.456 C 8.913,11.658 7.439,12.18 5.806,12.18 3.743,12.18 2.426,11.045 2.426,9.617 V 9.571 c 0,-1.497 0.818,-2.336 4.311,-3.085 3.538,-0.77 5.171,-2.064 5.171,-4.491 V 1.95 C 11.908,-0.771 9.64,-2.54 6.487,-2.54 3.969,-2.54 1.905,-1.702 0,0" /></g><g
     transform="translate(215.2514,739.5902)"
     id="g104"><path
       inkscape:connector-curvature="0"
       id="path106"
       style="fill:#004976;fill-opacity:1;fill-rule:nonzero;stroke:none"
       d="M 0,0 V 0.046 C 0,3.652 -2.631,6.6 -6.26,6.6 -9.888,6.6 -12.474,3.698 -12.474,0.091 V 0.046 c 0,-3.607 2.631,-6.556 6.259,-6.556 C -2.586,-6.51 0,-3.607 0,0 m -14.334,0 v 0.046 c 0,4.377 3.289,8.21 8.119,8.21 4.832,0 8.074,-3.788 8.074,-8.165 0.023,-0.023 0.023,-0.023 0,-0.045 0,-4.378 -3.288,-8.211 -8.119,-8.211 -4.831,0 -8.074,3.788 -8.074,8.165" /></g><g
     transform="translate(219.7402,739.5902)"
     id="g108"><path
       inkscape:connector-curvature="0"
       id="path110"
       style="fill:#004976;fill-opacity:1;fill-rule:nonzero;stroke:none"
       d="m 0,0 v 0.046 c 0,4.49 3.356,8.21 8.029,8.21 2.88,0 4.604,-1.02 6.192,-2.517 L 12.996,4.423 C 11.657,5.693 10.161,6.6 8.006,6.6 4.49,6.6 1.859,3.742 1.859,0.091 V 0.046 c 0,-3.675 2.654,-6.556 6.147,-6.556 2.177,0 3.607,0.839 5.126,2.291 l 1.18,-1.156 C 12.656,-7.054 10.841,-8.165 7.96,-8.165 3.379,-8.165 0,-4.559 0,0" /></g><path
     inkscape:connector-curvature="0"
     id="path112"
     style="fill:#004976;fill-opacity:1;fill-rule:nonzero;stroke:none"
     d="m 236.907,747.574 h 1.792 v -15.876 h -1.792 z" /><g
     transform="translate(242.8481,747.574)"
     id="g114"><path
       inkscape:connector-curvature="0"
       id="path116"
       style="fill:#004976;fill-opacity:1;fill-rule:nonzero;stroke:none"
       d="M 0,0 H 11.477 V -1.634 H 1.792 v -5.42 h 8.664 V -8.687 H 1.792 v -5.557 h 9.798 v -1.632 H 0 Z" /></g><g
     transform="translate(261.7852,745.9183)"
     id="g118"><path
       inkscape:connector-curvature="0"
       id="path120"
       style="fill:#004976;fill-opacity:1;fill-rule:nonzero;stroke:none"
       d="M 0,0 H -5.329 V 1.656 H 7.145 V 0 H 1.814 V -14.221 H 0 Z" /></g><g
     transform="translate(276.7978,737.98)"
     id="g122"><path
       inkscape:connector-curvature="0"
       id="path124"
       style="fill:#004976;fill-opacity:1;fill-rule:nonzero;stroke:none"
       d="m 0,0 -6.6,9.594 h 2.178 L 0.93,1.656 6.328,9.594 H 8.415 L 1.814,0.022 V -6.282 H 0 Z" /></g><g
     transform="translate(117.1059,716.912)"
     id="g126"><path
       inkscape:connector-curvature="0"
       id="path128"
       style="fill:#004976;fill-opacity:1;fill-rule:nonzero;stroke:none"
       d="M 0,0 V 0.045 C 0,3.652 -2.631,6.6 -6.26,6.6 -9.889,6.6 -12.474,3.698 -12.474,0.091 V 0.045 c 0,-3.607 2.631,-6.555 6.259,-6.555 C -2.586,-6.51 0,-3.606 0,0 m -14.334,0 v 0.045 c 0,4.378 3.289,8.211 8.119,8.211 4.832,0 8.074,-3.788 8.074,-8.165 0.023,-0.023 0.023,-0.023 0,-0.046 0,-4.377 -3.288,-8.21 -8.119,-8.21 -4.831,0 -8.074,3.787 -8.074,8.165" /></g><g
     transform="translate(123.204,724.8959)"
     id="g130"><path
       inkscape:connector-curvature="0"
       id="path132"
       style="fill:#004976;fill-opacity:1;fill-rule:nonzero;stroke:none"
       d="M 0,0 H 11.409 V -1.656 H 1.792 v -5.67 h 8.596 V -8.959 H 1.792 v -6.918 H 0 Z" /></g><g
     transform="translate(151.9831,708.7469)"
     id="g134"><path
       inkscape:connector-curvature="0"
       id="path136"
       style="fill:#004976;fill-opacity:1;fill-rule:nonzero;stroke:none"
       d="m 0,0 c -4.673,0 -8.143,3.607 -8.143,8.165 v 0.046 c 0,4.514 3.403,8.21 8.279,8.21 2.994,0 4.786,-0.998 6.26,-2.45 L 4.174,11.408 c -1.226,1.112 -2.473,1.793 -4.06,1.793 -2.677,0 -4.605,-2.224 -4.605,-4.945 V 8.211 c 0,-2.723 1.883,-4.99 4.605,-4.99 1.814,0 2.925,0.726 4.172,1.859 L 6.51,2.835 C 4.876,1.089 3.062,0 0,0" /></g><g
     transform="translate(171.8947,709.0189)"
     id="g138"><path
       inkscape:connector-curvature="0"
       id="path140"
       style="fill:#004976;fill-opacity:1;fill-rule:nonzero;stroke:none"
       d="M 0,0 V 6.374 H -6.442 V 0 h -3.492 v 15.877 h 3.492 V 9.595 H 0 v 6.282 H 3.493 V 0 Z" /></g><g
     transform="translate(179.8761,709.0189)"
     id="g142"><path
       inkscape:connector-curvature="0"
       id="path144"
       style="fill:#004976;fill-opacity:1;fill-rule:nonzero;stroke:none"
       d="M 0,0 V 15.877 H 11.975 V 12.77 H 3.47 V 9.549 h 7.485 V 6.442 H 3.47 V 3.107 h 8.619 V 0 Z" /></g><g
     transform="translate(208.1571,709.0189)"
     id="g146"><path
       inkscape:connector-curvature="0"
       id="path148"
       style="fill:#004976;fill-opacity:1;fill-rule:nonzero;stroke:none"
       d="M 0,0 V 10.365 L -4.468,3.584 h -0.091 l -4.423,6.713 V 0 h -3.424 v 15.877 h 3.765 l 4.173,-6.713 4.173,6.713 H 3.47 V 0 Z" /></g><path
     inkscape:connector-curvature="0"
     id="path150"
     style="fill:#004976;fill-opacity:1;fill-rule:nonzero;stroke:none"
     d="m 216.275,724.896 h 3.493 v -15.877 h -3.493 z" /><g
     transform="translate(230.0635,708.7924)"
     id="g152"><path
       inkscape:connector-curvature="0"
       id="path154"
       style="fill:#004976;fill-opacity:1;fill-rule:nonzero;stroke:none"
       d="m 0,0 c -2.404,0 -4.831,0.839 -6.737,2.54 l 2.064,2.472 c 1.429,-1.179 2.926,-1.927 4.741,-1.927 1.429,0 2.29,0.567 2.29,1.497 v 0.045 c 0,0.884 -0.544,1.338 -3.197,2.019 -3.199,0.816 -5.262,1.7 -5.262,4.853 v 0.045 c 0,2.881 2.313,4.786 5.556,4.786 2.314,0 4.288,-0.726 5.897,-2.018 L 3.538,11.681 c -1.406,0.975 -2.79,1.565 -4.128,1.565 -1.338,0 -2.042,-0.613 -2.042,-1.384 v -0.045 c 0,-1.043 0.681,-1.384 3.425,-2.086 C 4.014,8.891 5.829,7.734 5.829,4.967 V 4.922 C 5.829,1.769 3.425,0 0,0" /></g><g
     transform="translate(246.4594,721.6752)"
     id="g156"><path
       inkscape:connector-curvature="0"
       id="path158"
       style="fill:#004976;fill-opacity:1;fill-rule:nonzero;stroke:none"
       d="M 0,0 V -12.657 H -3.493 V 0 H -8.324 V 3.221 H 4.831 V 0 Z" /></g><g
     transform="translate(264.3531,719.4752)"
     id="g160"><path
       inkscape:connector-curvature="0"
       id="path162"
       style="fill:#004976;fill-opacity:1;fill-rule:nonzero;stroke:none"
       d="m 0,0 c 0,1.497 -1.043,2.268 -2.745,2.268 h -3.47 v -4.559 h 3.538 c 1.702,0 2.677,0.908 2.677,2.245 z m -0.068,-10.456 -3.402,5.081 h -2.745 v -5.081 H -9.708 V 5.42 h 7.258 c 3.742,0 5.988,-1.973 5.988,-5.238 V 0.136 c 0,-2.563 -1.383,-4.174 -3.402,-4.922 l 3.879,-5.67 z" /></g><g
     transform="translate(279.1161,715.347)"
     id="g164"><path
       inkscape:connector-curvature="0"
       id="path166"
       style="fill:#004976;fill-opacity:1;fill-rule:nonzero;stroke:none"
       d="m 0,0 v -6.328 h -3.493 v 6.26 l -6.101,9.617 h 4.083 l 3.787,-6.373 3.856,6.373 h 3.969 z" /></g><g
     transform="translate(94.7869,751.3782)"
     id="g168"><path
       inkscape:connector-curvature="0"
       id="path170"
       style="fill:#004976;fill-opacity:1;fill-rule:nonzero;stroke:none"
       d="m 0,0 c -1.477,1.477 -3.095,2.812 -4.831,3.986 -1.737,1.173 -3.592,2.184 -5.546,3.01 -1.952,0.826 -4.002,1.467 -6.127,1.902 -2.125,0.435 -4.325,0.663 -6.579,0.663 V -3.272 c 1.368,0 2.703,-0.138 3.992,-0.403 1.291,-0.263 2.534,-0.653 3.719,-1.154 1.186,-0.501 2.311,-1.115 3.366,-1.827 1.053,-0.711 2.035,-1.522 2.932,-2.418 z" /></g><g
     transform="translate(85.7122,714.2878)"
     id="g172"><path
       inkscape:connector-curvature="0"
       id="path174"
       style="fill:#004976;fill-opacity:1;fill-rule:nonzero;stroke:none"
       d="m 0,0 c -0.897,-0.897 -1.878,-1.707 -2.932,-2.419 -1.054,-0.712 -2.18,-1.325 -3.365,-1.827 -1.185,-0.501 -2.429,-0.89 -3.719,-1.154 -1.289,-0.264 -2.624,-0.402 -3.992,-0.402 -1.368,0 -2.703,0.138 -3.992,0.402 -1.29,0.264 -2.534,0.653 -3.719,1.154 -1.185,0.502 -2.311,1.115 -3.365,1.827 -1.054,0.712 -2.036,1.522 -2.932,2.419 l -9.075,-9.074 c 1.477,-1.477 3.095,-2.814 4.832,-3.987 1.736,-1.173 3.592,-2.184 5.544,-3.009 1.953,-0.827 4.003,-1.468 6.128,-1.903 2.126,-0.434 4.325,-0.663 6.579,-0.663 2.254,0 4.453,0.229 6.579,0.663 2.125,0.435 4.174,1.076 6.128,1.903 1.952,0.825 3.807,1.836 5.544,3.009 1.737,1.173 3.355,2.51 4.831,3.987 z" /></g><g
     transform="translate(57.6961,714.2878)"
     id="g176"><path
       inkscape:connector-curvature="0"
       id="path178"
       style="fill:#eedc00;fill-opacity:1;fill-rule:nonzero;stroke:none"
       d="m 0,0 c -0.897,0.897 -1.707,1.877 -2.419,2.932 -0.712,1.053 -1.325,2.18 -1.827,3.365 -0.501,1.185 -0.89,2.429 -1.154,3.718 -0.263,1.29 -0.402,2.625 -0.402,3.993 h -12.834 c 0,-2.254 0.229,-4.454 0.664,-6.579 0.435,-2.125 1.075,-4.175 1.902,-6.127 0.826,-1.953 1.836,-3.808 3.009,-5.545 1.173,-1.738 2.51,-3.355 3.987,-4.831 z" /></g><g
     transform="translate(51.8939,728.2958)"
     id="g180"><path
       inkscape:connector-curvature="0"
       id="path182"
       style="fill:#97d700;fill-opacity:1;fill-rule:nonzero;stroke:none"
       d="m 0,0 c 0,1.368 0.138,2.703 0.402,3.992 0.264,1.29 0.653,2.534 1.155,3.719 0.501,1.185 1.114,2.311 1.826,3.365 0.712,1.054 1.523,2.035 2.419,2.932 l -9.074,9.075 C -4.75,21.606 -6.085,19.988 -7.258,18.251 -8.431,16.514 -9.442,14.659 -10.268,12.707 -11.094,10.754 -11.736,8.704 -12.17,6.579 -12.605,4.453 -12.833,2.254 -12.833,0 Z" /></g><g
     transform="translate(57.6961,742.3039)"
     id="g184"><path
       inkscape:connector-curvature="0"
       id="path186"
       style="fill:#48a9c5;fill-opacity:1;fill-rule:nonzero;stroke:none"
       d="m 0,0 c 0.897,0.897 1.878,1.706 2.932,2.419 1.054,0.712 2.18,1.325 3.365,1.827 1.185,0.5 2.429,0.89 3.719,1.154 1.289,0.263 2.624,0.402 3.992,0.402 v 12.834 c -2.254,0 -4.453,-0.229 -6.579,-0.664 C 5.304,17.537 3.255,16.896 1.301,16.07 -0.651,15.244 -2.506,14.234 -4.243,13.061 -5.98,11.887 -7.598,10.551 -9.074,9.074 Z" /></g><g
     id="g188"><g
       id="g190" /><g
       id="g210"><g
         style="opacity:0.5"
         id="g208"
         clip-path="url(#clipPath194-9)"><g
           id="g206"><g
             id="g204"
             clip-path="url(#clipPath198-4)"><g
               id="g202"
               transform="translate(78.7501,764.5427)"><path
                 inkscape:connector-curvature="0"
                 id="path200"
                 style="fill:#48a9c5;fill-opacity:1;fill-rule:nonzero;stroke:none"
                 d="m 0,0 c -2.282,0.441 -4.636,0.675 -7.046,0.675 -2.549,0 -5.037,-0.259 -7.441,-0.75 -2.403,-0.493 -4.721,-1.218 -6.931,-2.152 -2.208,-0.934 -4.307,-2.077 -6.271,-3.404 -1.965,-1.327 -3.794,-2.838 -5.464,-4.509 -1.671,-1.67 -3.182,-3.499 -4.509,-5.464 l 17.736,-11.958 c 0.558,0.825 1.195,1.595 1.896,2.299 0.703,0.702 1.473,1.337 2.3,1.896 0.826,0.559 1.709,1.04 2.638,1.432 0.929,0.393 1.905,0.698 2.916,0.905 1.011,0.207 2.058,0.316 3.13,0.316 1.014,0 2.004,-0.101 2.964,-0.286 z" /></g></g></g></g></g></g><g
     id="g212"><g
       id="g214" /><g
       id="g234"><g
         style="opacity:0.5"
         id="g232"
         clip-path="url(#clipPath218-0)"><g
           id="g230"><g
             id="g228"
             clip-path="url(#clipPath222-1)"><g
               id="g226"
               transform="translate(60.721,717.3126)"><path
                 inkscape:connector-curvature="0"
                 id="path224"
                 style="fill:#eedc00;fill-opacity:1;fill-rule:nonzero;stroke:none"
                 d="m 0,0 c -0.703,0.703 -1.338,1.472 -1.897,2.299 -0.558,0.826 -1.039,1.709 -1.432,2.638 -0.393,0.929 -0.698,1.904 -0.905,2.916 -0.207,1.01 -0.316,2.058 -0.316,3.13 0,1.014 0.101,2.003 0.286,2.964 l -21,4.082 c -0.44,-2.282 -0.674,-4.636 -0.674,-7.046 0,-2.549 0.258,-5.038 0.75,-7.441 0.491,-2.403 1.217,-4.722 2.151,-6.93 0.934,-2.209 2.077,-4.308 3.404,-6.272 1.328,-1.964 2.839,-3.794 4.509,-5.465 1.67,-1.67 3.5,-3.181 5.464,-4.508 L 2.299,-1.897 C 1.472,-1.338 0.703,-0.703 0,0" /></g></g></g></g></g></g></g></g></svg>